<?xml version="1.0" encoding="UTF-8" standalone="no"?>
<svg width="1050px" height="1485px" version="1.1" xmlns="http://www.w3.org/2000/svg" xmlns:xlink="http://www.w3.org/1999/xlink" xmlns:mei="http://www.music-encoding.org/ns/mei" overflow="visible">
   <desc>Engraved by Verovio 3.2.0-d7189a9</desc>
   <defs>
      <symbol id="E052" viewBox="0 0 1000 1000" overflow="inherit">
         <path transform="scale(1,-1)" d="M382 117c-72 -2 -128 -47 -128 -120v-7c2 -46 43 -99 75 -115c-3 -2 -7 -5 -10 -10c-70 33 -116 88 -123 172v11c0 68 44 126 88 159c23 17 49 29 78 36l-29 170c-21 -13 -52 -37 -92 -73c-50 -44 -86 -84 -109 -119c-45 -69 -67 -130 -67 -182v-13 c5 -68 35 -127 93 -176s125 -73 203 -73c25 0 50 3 75 9c-19 111 -36 221 -54 331zM406 119l54 -326c73 25 110 78 110 161c0 7 0 15 -1 23c-7 95 -57 142 -151 142h-12zM461 939c-95 0 -135 -175 -135 -286c0 -24 2 -48 5 -71c50 39 92 82 127 128c40 53 60 100 60 140v8 c-4 53 -22 81 -55 81h-2zM441 -245c-23 -4 -48 -6 -76 -6c-59 0 -102 7 -130 20c-88 42 -150 93 -187 154c-26 44 -43 103 -48 176c0 6 -1 13 -1 19c0 54 15 111 45 170c29 57 65 106 110 148s96 85 153 127c-3 16 -8 46 -13 92c-4 43 -5 73 -5 89c0 117 16 172 69 257 c34 54 64 82 89 82c21 0 43 -30 69 -92s39 -115 41 -159v-15c0 -109 -21 -162 -67 -241c-13 -20 -63 -90 -98 -118c-13 -9 -25 -19 -37 -29l31 -181c8 1 18 2 28 2c58 0 102 -12 133 -35c59 -43 92 -104 98 -184c1 -7 1 -15 1 -22c0 -123 -87 -209 -181 -248 c8 -57 17 -110 25 -162c5 -31 6 -58 6 -80c0 -30 -5 -53 -14 -70c-25 -46 -59 -77 -102 -92c21 -1 85 -13 85 -60c0 -35 -22 -43 -31 -50c-6 -5 -8 -10 -8 -16s0 -11 4 -16c6 -11 9 -22 9 -34c0 -27 -18 -53 -46 -65c-11 -4 -27 -6 -41 -6c-34 0 -82 21 -90 58 c-1 5 -2 8 -2 12c0 28 25 57 51 66c4 1 6 2 6 5c0 2 -1 3 -2 3c-11 13 -16 27 -16 41c0 21 11 40 30 51h-5c-5 0 -11 -1 -16 -1c-37 0 -72 10 -108 27c-50 24 -77 59 -80 105v11c0 29 7 55 20 76c18 28 45 42 79 44h6c49 0 93 -42 97 -87v-9c0 -51 -34 -86 -105 -106 c17 -24 51 -36 102 -36c62 0 116 43 140 85c9 16 13 41 13 74c0 20 -1 42 -5 67c-8 53 -18 106 -26 159zM315 -781c-3 -2 -6 -5 -7 -8c-6 -8 -10 -19 -10 -30c0 -2 0 -4 1 -7c7 -32 34 -52 53 -52c20 0 37 20 37 36c0 5 -2 9 -4 14c-5 13 -14 24 -25 34c-6 5 -11 10 -17 14 c-4 2 -9 6 -14 6c-6 0 -11 -3 -14 -7zM349 -685c0 -14 10 -25 18 -34c8 -8 16 -18 26 -25c5 -2 10 -4 13 -4c17 0 22 30 23 48c0 9 -3 20 -9 26c-8 9 -23 14 -40 14c-15 -1 -29 -8 -31 -25z" />
      </symbol>
      <symbol id="E084" viewBox="0 0 1000 1000" overflow="inherit">
         <path transform="scale(1,-1)" d="M0 -78c84 97 114 180 134 329h170c-13 -32 -82 -132 -99 -151l-84 -97c-33 -36 -59 -63 -80 -81h162v102l127 123v-225h57v-39h-57v-34c0 -43 19 -65 57 -65v-34h-244v36c48 0 60 26 60 70v27h-203v39z" />
      </symbol>
      <symbol id="E0A3" viewBox="0 0 1000 1000" overflow="inherit">
         <path transform="scale(1,-1)" d="M278 64c0 22 -17 39 -43 39c-12 0 -26 -3 -41 -10c-85 -43 -165 -94 -165 -156c5 -25 15 -32 49 -32c67 11 200 95 200 159zM0 -36c0 68 73 174 200 174c66 0 114 -39 114 -97c0 -84 -106 -173 -218 -173c-64 0 -96 32 -96 96z" />
      </symbol>
      <symbol id="E0A4" viewBox="0 0 1000 1000" overflow="inherit">
         <path transform="scale(1,-1)" d="M0 -39c0 68 73 172 200 172c66 0 114 -37 114 -95c0 -84 -106 -171 -218 -171c-64 0 -96 30 -96 94z" />
      </symbol>
   </defs>
   <style type="text/css">g.page-margin{font-family:Times;} g.reh, g.tempo{font-weight:bold;} g.dir, g.dynam, g.mNum{font-style:italic;} g.label{font-weight:normal;}</style>
   <svg class="definition-scale" color="black" viewBox="0 0 21000 29700">
      <g class="page-margin" transform="translate(500, 500)">
         <g id="system-0000001480303021" class="system">
            <g id="label-0000001991943041" class="label">
               <text x="1200" y="1816" text-anchor="end" font-size="0px">
                  <tspan id="text-0000001464117004" class="text">
                     <tspan font-size="405px" class="text">Guitar</tspan>
                  </tspan>
               </text>
            </g>
            <g id="section-0000001142281072" class="section boundaryStart" />
            <g id="measure-0000000756094482" class="measure">
               <g id="staff-0000000205074078" class="staff">
                  <path d="M1380 1276 L5712 1276" stroke="currentColor" stroke-width="13" />
                  <path d="M1380 1456 L5712 1456" stroke="currentColor" stroke-width="13" />
                  <path d="M1380 1636 L5712 1636" stroke="currentColor" stroke-width="13" />
                  <path d="M1380 1816 L5712 1816" stroke="currentColor" stroke-width="13" />
                  <path d="M1380 1996 L5712 1996" stroke="currentColor" stroke-width="13" />
                  <path d="M1380 2176 L5712 2176" stroke="currentColor" stroke-width="13" />
                  <g id="clef-0000000290307054" class="clef">
                     <use xlink:href="#E052" x="1470" y="1996" height="720px" width="720px" />
                  </g>
                  <g id="msig-0000001643938937" class="meterSig">
                     <use xlink:href="#E084" x="2205" y="1546" height="720px" width="720px" />
                     <use xlink:href="#E084" x="2205" y="1906" height="720px" width="720px" />
                  </g>
                  <g id="layer-0000002116259158" class="layer">
                     <g id="note-0000001343506892" class="note">
                        <g class="notehead">
                           <use xlink:href="#E0A4" x="2765" y="1546" height="720px" width="720px" />
                        </g>
                        <g id="stem-0000000027238331" class="stem">
                           <rect x="2765" y="1574" height="602" width="18" />
                        </g>
                     </g>
                     <g id="note-0000001677269286" class="note">
                        <g class="notehead">
                           <use xlink:href="#E0A4" x="3498" y="1636" height="720px" width="720px" />
                        </g>
                        <g id="stem-0000000380612306" class="stem">
                           <rect x="3498" y="1664" height="602" width="18" />
                        </g>
                     </g>
                     <g id="note-0000001994539280" class="note">
                        <g class="notehead">
                           <use xlink:href="#E0A4" x="4232" y="1726" height="720px" width="720px" />
                        </g>
                        <g id="stem-0000001744726176" class="stem">
                           <rect x="4232" y="1754" height="602" width="18" />
                        </g>
                     </g>
                     <g id="note-0000000001949290" class="note">
                        <g class="notehead">
                           <use xlink:href="#E0A4" x="4965" y="1636" height="720px" width="720px" />
                        </g>
                        <g id="stem-0000001871123894" class="stem">
                           <rect x="4965" y="1664" height="602" width="18" />
                        </g>
                     </g>
                  </g>
               </g>
               <g id="bline-0000000963421894" class="barLineAttr">
                  <path d="M5699 2176 L5699 1276" stroke="currentColor" stroke-width="27" />
               </g>
            </g>
            <g id="measure-0000000549462325" class="measure">
               <g id="staff-0000001106230021" class="staff">
                  <path d="M5712 1276 L8500 1276" stroke="currentColor" stroke-width="13" />
                  <path d="M5712 1456 L8500 1456" stroke="currentColor" stroke-width="13" />
                  <path d="M5712 1636 L8500 1636" stroke="currentColor" stroke-width="13" />
                  <path d="M5712 1816 L8500 1816" stroke="currentColor" stroke-width="13" />
                  <path d="M5712 1996 L8500 1996" stroke="currentColor" stroke-width="13" />
                  <path d="M5712 2176 L8500 2176" stroke="currentColor" stroke-width="13" />
                  <g id="layer-0000001642030868" class="layer">
                     <g id="note-0000000300450879" class="note">
                        <g class="notehead">
                           <use xlink:href="#E0A4" x="5904" y="1546" height="720px" width="720px" />
                        </g>
                        <g id="stem-0000000228759790" class="stem">
                           <rect x="5904" y="1574" height="602" width="18" />
                        </g>
                     </g>
                     <g id="note-0000000943869256" class="note">
                        <g class="notehead">
                           <use xlink:href="#E0A4" x="6637" y="1546" height="720px" width="720px" />
                        </g>
                        <g id="stem-0000000770062400" class="stem">
                           <rect x="6637" y="1574" height="602" width="18" />
                        </g>
                     </g>
                     <g id="note-0000000148885203" class="note">
                        <g class="notehead">
                           <use xlink:href="#E0A3" x="7371" y="1546" height="720px" width="720px" />
                        </g>
                        <g id="stem-0000001702299978" class="stem">
                           <rect x="7371" y="1571" height="605" width="18" />
                        </g>
                     </g>
                  </g>
               </g>
               <g id="bline-0000001483767855" class="barLineAttr">
                  <path d="M8487 2176 L8487 1276" stroke="currentColor" stroke-width="27" />
               </g>
            </g>
            <g id="measure-0000000495158066" class="measure">
               <g id="staff-0000001191441100" class="staff">
                  <path d="M8500 1276 L11288 1276" stroke="currentColor" stroke-width="13" />
                  <path d="M8500 1456 L11288 1456" stroke="currentColor" stroke-width="13" />
                  <path d="M8500 1636 L11288 1636" stroke="currentColor" stroke-width="13" />
                  <path d="M8500 1816 L11288 1816" stroke="currentColor" stroke-width="13" />
                  <path d="M8500 1996 L11288 1996" stroke="currentColor" stroke-width="13" />
                  <path d="M8500 2176 L11288 2176" stroke="currentColor" stroke-width="13" />
                  <g id="layer-0000001413043072" class="layer">
                     <g id="note-0000002140742578" class="note">
                        <g class="notehead">
                           <use xlink:href="#E0A4" x="8692" y="1636" height="720px" width="720px" />
                        </g>
                        <g id="stem-0000001778584912" class="stem">
                           <rect x="8692" y="1664" height="602" width="18" />
                        </g>
                     </g>
                     <g id="note-0000000519486608" class="note">
                        <g class="notehead">
                           <use xlink:href="#E0A4" x="9425" y="1636" height="720px" width="720px" />
                        </g>
                        <g id="stem-0000001851733391" class="stem">
                           <rect x="9425" y="1664" height="602" width="18" />
                        </g>
                     </g>
                     <g id="note-0000001490395601" class="note">
                        <g class="notehead">
                           <use xlink:href="#E0A3" x="10159" y="1636" height="720px" width="720px" />
                        </g>
                        <g id="stem-0000000750090213" class="stem">
                           <rect x="10159" y="1661" height="605" width="18" />
                        </g>
                     </g>
                  </g>
               </g>
               <g id="bline-0000000601626968" class="barLineAttr">
                  <path d="M11275 2176 L11275 1276" stroke="currentColor" stroke-width="27" />
               </g>
            </g>
            <g id="measure-0000000829607399" class="measure">
               <g id="staff-0000000850747649" class="staff">
                  <path d="M11288 1276 L14076 1276" stroke="currentColor" stroke-width="13" />
                  <path d="M11288 1456 L14076 1456" stroke="currentColor" stroke-width="13" />
                  <path d="M11288 1636 L14076 1636" stroke="currentColor" stroke-width="13" />
                  <path d="M11288 1816 L14076 1816" stroke="currentColor" stroke-width="13" />
                  <path d="M11288 1996 L14076 1996" stroke="currentColor" stroke-width="13" />
                  <path d="M11288 2176 L14076 2176" stroke="currentColor" stroke-width="13" />
                  <g id="layer-0000000569615017" class="layer">
                     <g id="note-0000000037492393" class="note">
                        <g class="notehead">
                           <use xlink:href="#E0A4" x="11480" y="1546" height="720px" width="720px" />
                        </g>
                        <g id="stem-0000001037202001" class="stem">
                           <rect x="11480" y="1574" height="602" width="18" />
                        </g>
                     </g>
                     <g id="note-0000000921940580" class="note">
                        <g class="notehead">
                           <use xlink:href="#E0A4" x="12213" y="1366" height="720px" width="720px" />
                        </g>
                        <g id="stem-0000001129268108" class="stem">
                           <rect x="12213" y="1394" height="602" width="18" />
                        </g>
                     </g>
                     <g id="note-0000000960814955" class="note">
                        <g class="notehead">
                           <use xlink:href="#E0A3" x="12947" y="1366" height="720px" width="720px" />
                        </g>
                        <g id="stem-0000000148618970" class="stem">
                           <rect x="12947" y="1391" height="605" width="18" />
                        </g>
                     </g>
                  </g>
               </g>
               <g id="bline-0000000073009098" class="barLineAttr">
                  <path d="M14063 2176 L14063 1276" stroke="currentColor" stroke-width="27" />
               </g>
            </g>
            <g id="measure-0000001487406892" class="measure">
               <g id="staff-0000001615350031" class="staff">
                  <path d="M14076 1276 L17215 1276" stroke="currentColor" stroke-width="13" />
                  <path d="M14076 1456 L17215 1456" stroke="currentColor" stroke-width="13" />
                  <path d="M14076 1636 L17215 1636" stroke="currentColor" stroke-width="13" />
                  <path d="M14076 1816 L17215 1816" stroke="currentColor" stroke-width="13" />
                  <path d="M14076 1996 L17215 1996" stroke="currentColor" stroke-width="13" />
                  <path d="M14076 2176 L17215 2176" stroke="currentColor" stroke-width="13" />
                  <g id="layer-0000000699705643" class="layer">
                     <g id="note-0000000332290929" class="note">
                        <g class="notehead">
                           <use xlink:href="#E0A4" x="14268" y="1546" height="720px" width="720px" />
                        </g>
                        <g id="stem-0000000315547329" class="stem">
                           <rect x="14268" y="1574" height="602" width="18" />
                        </g>
                     </g>
                     <g id="note-0000001356161503" class="note">
                        <g class="notehead">
                           <use xlink:href="#E0A4" x="15001" y="1636" height="720px" width="720px" />
                        </g>
                        <g id="stem-0000001266834060" class="stem">
                           <rect x="15001" y="1664" height="602" width="18" />
                        </g>
                     </g>
                     <g id="note-0000001762435310" class="note">
                        <g class="notehead">
                           <use xlink:href="#E0A4" x="15735" y="1726" height="720px" width="720px" />
                        </g>
                        <g id="stem-0000001527170062" class="stem">
                           <rect x="15735" y="1754" height="602" width="18" />
                        </g>
                     </g>
                     <g id="note-0000001008312099" class="note">
                        <g class="notehead">
                           <use xlink:href="#E0A4" x="16468" y="1636" height="720px" width="720px" />
                        </g>
                        <g id="stem-0000000422683090" class="stem">
                           <rect x="16468" y="1664" height="602" width="18" />
                        </g>
                     </g>
                  </g>
               </g>
               <g id="bline-0000001300443650" class="barLineAttr">
                  <path d="M17202 2176 L17202 1276" stroke="currentColor" stroke-width="27" />
               </g>
            </g>
            <g id="measure-0000000907989416" class="measure">
               <g id="staff-0000001774861906" class="staff">
                  <path d="M17215 1276 L20003 1276" stroke="currentColor" stroke-width="13" />
                  <path d="M17215 1456 L20003 1456" stroke="currentColor" stroke-width="13" />
                  <path d="M17215 1636 L20003 1636" stroke="currentColor" stroke-width="13" />
                  <path d="M17215 1816 L20003 1816" stroke="currentColor" stroke-width="13" />
                  <path d="M17215 1996 L20003 1996" stroke="currentColor" stroke-width="13" />
                  <path d="M17215 2176 L20003 2176" stroke="currentColor" stroke-width="13" />
                  <g id="layer-0000001556197312" class="layer">
                     <g id="note-0000000804885971" class="note">
                        <g class="notehead">
                           <use xlink:href="#E0A4" x="17407" y="1546" height="720px" width="720px" />
                        </g>
                        <g id="stem-0000000158789354" class="stem">
                           <rect x="17407" y="1574" height="602" width="18" />
                        </g>
                     </g>
                     <g id="note-0000000719022144" class="note">
                        <g class="notehead">
                           <use xlink:href="#E0A4" x="18140" y="1546" height="720px" width="720px" />
                        </g>
                        <g id="stem-0000001597983104" class="stem">
                           <rect x="18140" y="1574" height="602" width="18" />
                        </g>
                     </g>
                     <g id="note-0000000714692539" class="note">
                        <g class="notehead">
                           <use xlink:href="#E0A3" x="18874" y="1546" height="720px" width="720px" />
                        </g>
                        <g id="stem-0000000871539546" class="stem">
                           <rect x="18874" y="1571" height="605" width="18" />
                        </g>
                     </g>
                  </g>
               </g>
               <g id="bline-0000001744337129" class="barLineAttr">
                  <path d="M19990 2176 L19990 1276" stroke="currentColor" stroke-width="27" />
               </g>
            </g>
         </g>
         <g id="system-0000000276995406" class="system">
            <g id="measure-0000000961465302" class="measure">
               <g id="mnum-0000001597308022" class="mNum autogenerated">
                  <text x="0" y="3013" text-anchor="middle" font-size="0px">
                     <tspan id="text-0000000262854607" class="text">
                        <tspan font-size="324px" class="text">7</tspan>
                     </tspan>
                  </text>
               </g>
               <g id="staff-0000002115728565" class="staff">
                  <path d="M0 3256 L3028 3256" stroke="currentColor" stroke-width="13" />
                  <path d="M0 3436 L3028 3436" stroke="currentColor" stroke-width="13" />
                  <path d="M0 3616 L3028 3616" stroke="currentColor" stroke-width="13" />
                  <path d="M0 3796 L3028 3796" stroke="currentColor" stroke-width="13" />
                  <path d="M0 3976 L3028 3976" stroke="currentColor" stroke-width="13" />
                  <path d="M0 4156 L3028 4156" stroke="currentColor" stroke-width="13" />
                  <g id="clef-0000001617706155" class="clef">
                     <use xlink:href="#E052" x="90" y="3976" height="720px" width="720px" />
                  </g>
                  <g id="layer-0000001015764929" class="layer">
                     <g id="note-0000001613651700" class="note">
                        <g class="notehead">
                           <use xlink:href="#E0A3" x="915" y="3616" height="720px" width="720px" />
                        </g>
                        <g id="stem-0000002126677082" class="stem">
                           <rect x="915" y="3641" height="605" width="18" />
                        </g>
                     </g>
                     <g id="note-0000000073143937" class="note">
                        <g class="notehead">
                           <use xlink:href="#E0A3" x="1965" y="3346" height="720px" width="720px" />
                        </g>
                        <g id="stem-0000000343896506" class="stem">
                           <rect x="1965" y="3371" height="605" width="18" />
                        </g>
                     </g>
                  </g>
               </g>
               <g id="bline-0000000044974266" class="barLineAttr">
                  <path d="M3015 4156 L3015 3256" stroke="currentColor" stroke-width="27" />
               </g>
            </g>
            <g id="measure-0000000969503075" class="measure">
               <g id="staff-0000000633600987" class="staff">
                  <path d="M3028 3256 L5251 3256" stroke="currentColor" stroke-width="13" />
                  <path d="M3028 3436 L5251 3436" stroke="currentColor" stroke-width="13" />
                  <path d="M3028 3616 L5251 3616" stroke="currentColor" stroke-width="13" />
                  <path d="M3028 3796 L5251 3796" stroke="currentColor" stroke-width="13" />
                  <path d="M3028 3976 L5251 3976" stroke="currentColor" stroke-width="13" />
                  <path d="M3028 4156 L5251 4156" stroke="currentColor" stroke-width="13" />
                  <g id="layer-0000001707866683" class="layer">
                     <g id="note-0000000848915379" class="note">
                        <g class="notehead">
                           <use xlink:href="#E0A4" x="3208" y="3526" height="720px" width="720px" />
                        </g>
                        <g id="stem-0000000990082265" class="stem">
                           <rect x="3208" y="3554" height="602" width="18" />
                        </g>
                     </g>
                     <g id="note-0000001986907832" class="note">
                        <g class="notehead">
                           <use xlink:href="#E0A3" x="3898" y="3706" height="720px" width="720px" />
                        </g>
                        <g id="dots-0000000467885528" class="dots">
                           <ellipse cx="4214" cy="3706" rx="36" ry="36" />
                        </g>
                        <g id="stem-0000001609330899" class="stem">
                           <rect x="3898" y="3731" height="605" width="18" />
                        </g>
                     </g>
                  </g>
               </g>
               <g id="bline-0000001101314640" class="barLineAttr">
                  <path d="M5238 4156 L5238 3256" stroke="currentColor" stroke-width="27" />
               </g>
            </g>
            <g id="bdend-0000001748321062" class="boundaryEnd section-0000001142281072" />
         </g>
         <g id="pghead-0000000819249557" class="pgHead autogenerated">
            <text x="0" y="0" font-size="0px">
               <tspan id="rend-0000001609643582" class="rend" x="10000" y="415" text-anchor="middle">
                  <title class="labelAttr">title</title>
                  <tspan id="rend-0000001428181415" class="rend">
                     <tspan id="text-0000001020319386" class="text">
                        <tspan font-size="607px" class="text">London bridge </tspan>
                     </tspan>
                  </tspan>
               </tspan>
            </text>
         </g>
         <g id="pgfoot-0000000013347133" class="pgFoot autogenerated">
            <g id="fig-0000000986965043" class="fig">
               <g id="fig-0000000757788273" class="svg" transform="translate(7750, 28099) scale(10, 10)">
                  <g>
                     <path fill="#00000" d="M 17.11278,49.26451 V 10.367554 h 12.696511 c 3.288815,7.336676 6.71267,14.610456 10.127281,21.888976 3.419998,-7.484684 6.255515,-14.204887 9.58887,-21.909915 2.436207,0.103726 4.316952,0.08453 6.484294,-0.05808 V 49.264423 H 50.274275 C 50.145222,38.35639 50.016136,27.448368 49.887066,16.540329 45.003488,27.315459 39.967448,38.433564 35.083854,49.208695 34.678996,49.343717 34.426583,49.135619 34.021726,49.270644 29.46588,39.330716 24.910049,29.390805 20.354201,19.450876 20.224341,29.388756 20.09461,39.326619 19.964815,49.264497 H 17.11278 Z M 36.754144,39.324695 C 32.721221,30.512695 28.6883,21.700679 24.655394,12.888662 22.530527,12.750737 22.656775,12.71031 20.714356,12.813974 v 0.966497 c 4.612938,9.99784 9.609439,20.748709 13.87298,30.081745 0.722248,-1.512523 1.444528,-3.025014 2.166808,-4.537521 z m 25.738417,9.939815 c 0,-12.965651 0,-25.931305 0,-38.896956 10.084388,0 20.168791,0 30.253178,0 0,0.960416 0,1.920849 0,2.881265 -6.482825,0 -12.965652,0 -19.448478,0 0,4.802097 0,9.604178 0,14.406277 5.52241,0 11.044819,0 16.567229,0 0,0.960415 0,1.920832 0,2.881248 -5.52241,0 -11.044819,0 -16.567229,0 0,5.282306 0,10.564611 0,15.846917 6.963035,0 13.926068,0 20.889103,0 0,0.960416 0,1.920832 0,2.881249 -10.564597,0 -21.129207,0 -31.693803,0 z m 4.321874,-2.160937 c 0,-11.765131 0,-23.530263 0,-35.295394 -0.720312,0 -1.440625,0 -2.160937,0 0,11.765131 0,23.530263 0,35.295394 0.720312,0 1.440625,0 2.160937,0 z m 32.41413,2.160937 c 0,-12.965651 0,-25.931305 0,-38.896956 2.401045,0 4.802095,0 7.203135,0 0,12.965651 0,25.931305 0,38.896956 -2.40104,0 -4.80209,0 -7.203135,0 z m 2.881265,-2.160937 c 0,-11.765131 0,-23.530263 0,-35.295394 -0.72031,0 -1.44064,0 -2.160953,0 0,11.765131 0,23.530263 0,35.295394 0.720313,0 1.440643,0 2.160953,0 z" />
                     <path fill="#00000" d="m 346.3,6.7 c -3.1,0.5 -4.9,4.4 -2.7,6.8 1.2,1.4 2.7,2.4 4.1,3.5 -2.4,5.3 -7.7,8.3 -11.9,12.1 -3.7,2.8 -7,6.2 -9.7,9.9 -2.2,-0.8 -0.3,-6.8 -0.6,-9.5 0.1,-3.1 0.7,-6.4 2.9,-8.7 1.3,-1.9 3,-3.5 4.5,-5.2 1.2,-3.4 -3.2,-4.9 -5.8,-4.6 -7.3,-0.5 -14.6,2 -20,6.8 -5,4.6 -10,10.1 -11.5,17 -0.9,3.5 -0.2,7.5 2.8,9.9 2.5,2.8 7.4,2.9 9.8,-0.2 1.7,-2.3 3.2,-4.8 3.8,-7.6 -0.1,-2.6 -4.4,-2.3 -4.3,0.2 1.2,2.4 -0.9,4.7 -2.7,6.2 -1.7,0.9 -4.7,0.7 -4.8,-1.7 -1,-5.8 2.1,-11.3 5.2,-16.1 4,-5.8 9.8,-11.2 17.2,-11.8 1.6,0 8.1,-1.2 6.8,1.4 -2.8,2.8 -5.6,6.1 -6,10.3 -1.6,7.7 0.1,15.7 -2.3,23.2 -1.1,3.9 2,2.6 2.5,0.2 3.3,-7.4 8.9,-13.4 15.1,-18.5 4.2,-3.9 9.5,-7.1 11.9,-12.6 1.3,-3.6 1.2,-9 -2.7,-10.9 -0.6,-0.2 -1.2,-0.3 -1.8,-0.3 z m 66,14.5 c -2,0.8 -1.8,4.9 0.8,4.4 3.4,0.4 2.9,-6.2 -0.8,-4.4 z m 0.6,7.3 c -1.3,0.5 -7.6,0.5 -5.4,2.2 4,-0.3 0.7,4.5 0.6,6.7 -0.4,2.9 -2.4,5.9 -1.2,8.8 2.7,1.7 5.6,-0.8 6.8,-3.2 1.6,-1.4 -0.5,-3 -1.2,-0.9 -0.4,0.8 -2.4,3.5 -2.6,1.8 1.1,-5 2.7,-9.9 3.9,-14.9 l -0.1,-0.5 h -0.9 z m -65.1,0.2 c -6.5,1.6 -10.5,9.5 -8.2,15.7 2.1,3.4 7.4,2.9 10.1,0.4 2,-0.2 3.6,-5.3 1,-3.4 -1.4,2 -4,4.2 -6.5,2.8 -2.2,-1.9 -1.9,-5.7 1.7,-5.3 3.1,-0.9 6.9,-2.1 8.1,-5.5 0.9,-2.7 -1.6,-5.2 -4.3,-4.8 h -1.1 -0.7 z m 13.6,0 c -2.2,0 -8.5,1.8 -2.9,2.3 0.9,1.9 -1,4.9 -1.1,7.2 -0.5,2.9 -1.4,5.7 -1.7,8.7 3.7,0.7 3.8,-2.6 4.4,-5.3 0.9,-3.3 1.6,-7 4.1,-9.5 2.4,1.6 6.8,-0.7 3.7,-3.4 -2.9,-0.5 -4.8,2.4 -6.2,4.3 0,-1.2 2.4,-5 -0.2,-4.3 z m 15.8,0 c -6.4,1.3 -9.6,9.1 -7.7,14.9 1.9,4 7.7,3.9 11,1.7 4.1,-3 6,-8.9 4.4,-13.7 -1.3,-3 -4.8,-3.2 -7.6,-3 z m 17,0 c -2.3,0 -8.8,1.9 -3,2.4 0.4,2.5 -1,5.7 -1.4,8.4 -0.7,2.4 -1.8,7.5 2.1,7.2 3.8,-0.1 6.5,-3.5 8.5,-6.3 2,-3.2 4.5,-7 3.3,-10.9 -3.7,-3 -3.6,2.6 -3.1,5.1 -0.7,3.8 -2.7,7.9 -6.2,9.8 -3.6,0.6 -1,-4.3 -0.8,-6.1 0.6,-3.2 1.6,-6.3 1.9,-9.5 -0.4,0 -0.8,0 -1.1,0 z m 30.6,0 c -6.3,1.2 -9.5,8.9 -7.8,14.7 1.5,4 7.2,4.2 10.5,2.4 4.6,-2.8 6.6,-9.3 4.8,-14.3 -1.4,-2.8 -4.8,-3 -7.5,-2.8 z m -75.4,1.7 c 2.1,1.5 0.2,4.7 -1.6,5.7 -1.1,0.4 -5.5,3.4 -4.6,0.7 0.8,-2.7 2.2,-6.2 5.3,-6.6 l 0.9,0.1 z m 30.8,0 c 2.6,1.5 1.3,5.2 0.8,7.6 -0.8,2.7 -1.9,5.9 -4.7,7.1 -5.1,0.8 -4,-5.8 -2.8,-8.8 1,-2.8 3,-6.8 6.7,-5.8 z m 47.1,-0.1 c 2.9,0.7 2,4.7 1.5,6.8 -0.7,3 -1.8,6.7 -5,8 -4.7,0.8 -4,-5.1 -3,-7.9 0.9,-3 2.7,-7.3 6.5,-6.8 z m -88.1,5.9 c -0.3,1.3 0.9,-0.6 0,0 z m -1.1,2.4 c -0.2,0.5 0.5,-0.1 0,0 z m -1.3,4.5 c -0.3,1.3 0.8,-0.2 0,0 z" />
                     <text y="41" x="201" fill="#00000" style="font-style:italic;font-weight:normal;font-size:30px;line-height:125%;font-family:Times;text-anchor:middle" xml:space="preserve">engraved with</text>
                  </g>
               </g>
            </g>
         </g>
      </g>
   </svg>
</svg>
