<svg id="Capa_1" enable-background="new 0 0 512 512" height="512" viewBox="0 0 512 512" width="512" xmlns="http://www.w3.org/2000/svg"><g>
<path d="m512 256c0 141.385-114.615 256-256 256s-256-114.615-256-256 114.615-256 256-256 256 114.615 256 256z" fill="#e0e0e0"/>
<path d="m477.801 270.629c0 115.342-93.503 208.844-208.844 208.844s-208.845-93.503-208.845-208.844 93.503-208.845 208.844-208.845 208.845 93.503 208.845 208.845z" fill="#2196f3"/>
<path d="m1.27 281.662h509.46c-.525 5.273-1.209 10.499-2.049 15.673h-505.361c-.84-5.174-1.525-10.4-2.05-15.673zm21.534 80.109h466.393c2.333-5.136 4.502-10.363 6.499-15.673h-479.391c1.997 5.31 4.165 10.537 6.499 15.673zm-12.08-32.218h490.552c1.544-5.158 2.931-10.384 4.154-15.673h-498.86c1.223 5.289 2.61 10.515 4.154 15.673zm501.194-80.109h-511.836c-.054 2.179-.082 4.364-.082 6.556 0 3.052.054 6.091.159 9.118h511.681c.106-3.027.159-6.066.159-9.118.001-2.192-.027-4.377-.081-6.556zm-21.575-96.653h-468.686c-2.266 5.138-4.368 10.365-6.3 15.673h481.286c-1.932-5.308-4.033-10.535-6.3-15.673zm11.686 32.218h-492.058c-1.486 5.16-2.814 10.386-3.979 15.673h500.015c-1.164-5.287-2.492-10.514-3.978-15.673zm7.053 32.218h-506.164c-.787 5.175-1.418 10.401-1.89 15.673h509.943c-.471-5.272-1.102-10.498-1.889-15.673z" fill="#2180f3"/>
<path d="m236.799 156.182v24.606c0 3.763-2.494 7.069-6.112 8.103l-66.588 19.333-43.169 12.027v182.999s-.524 12.619-1.462 14.639c-5.566 17.338-26.38 30.222-51.206 30.222-29.087 0-52.667-17.685-52.667-39.501 0-21.815 23.58-39.5 52.667-39.5 7.49 0 14.616 1.173 21.067 3.287v-154.969c0-.377.014-.752.04-1.123.766-17.574 12.689-32.798 29.731-37.667l106.7-30.178c5.384-1.538 10.999 2.123 10.999 7.722zm168.058-66.753c-7.101 0-12.857 5.756-12.857 12.857v126.104c-5.25-1.72-11.048-2.675-17.143-2.675-23.669 0-42.857 14.391-42.857 32.143 0 17.751 19.188 32.142 42.857 32.142 20.201 0 37.136-10.482 41.667-24.59.764-1.645 1.191-3.478 1.191-5.41v-157.714c-.001-7.101-5.757-12.857-12.858-12.857z" fill="#ff9f22"/>
<path d="m300 138.432v229.625c0 17.453-18.864 31.601-42.134 31.601s-42.134-14.148-42.134-31.601 18.864-31.601 42.134-31.601c3.637 0 7.167.346 10.533.996v-159.029l-105.126 30.036c-5.383 1.538-10.742-2.504-10.742-8.103 0-18.327 12.149-34.434 29.771-39.468l94.729-27.065c1.767-.901 3.727-1.48 5.801-1.658l6.426-1.836c5.383-1.537 10.742 2.505 10.742 8.103zm203.259-92.577-87.034 24.867c-13.867 3.962-23.57 16.351-24.193 30.65-.021.302-.032.606-.032.914v83.968c0 7.101 5.756 12.857 12.857 12.857 7.101 0 12.857-5.756 12.857-12.857v-81.672l89.312-25.518c2.944-.841 4.973-3.532 4.973-6.593v-20.023c.001-4.556-4.36-7.845-8.74-6.593z" fill="#ffc14f"/>
<path d="m284.2 251.698c-8.726 0-15.8-7.074-15.8-15.8v-60.4c0-8.726 7.074-15.8 15.8-15.8 8.726 0 15.8 7.074 15.8 15.8v60.4c0 8.726-7.074 15.8-15.8 15.8zm120.657-101.698c7.101 0 12.857-5.756 12.857-12.857v-33.454c0-7.101-5.756-12.857-12.857-12.857-7.101 0-12.857 5.756-12.857 12.857v33.454c0 7.101 5.756 12.857 12.857 12.857z" fill="#ffe1aa"/>
<path d="m322.615 83.208 4.731 8.65c.184.336.459.611.795.795l8.65 4.731c1.387.759 1.387 2.751 0 3.509l-8.65 4.731c-.336.184-.612.459-.795.795l-4.731 8.65c-.759 1.387-2.751 1.387-3.509 0l-4.731-8.65c-.184-.336-.459-.611-.795-.795l-8.65-4.731c-1.387-.759-1.387-2.751 0-3.509l8.65-4.731c.336-.184.611-.459.795-.795l4.731-8.65c.758-1.387 2.751-1.387 3.509 0z" fill="#ff9f22"/>
<path d="m420.894 304.929 4.731 8.65c.184.336.459.612.795.795l8.65 4.731c1.387.759 1.387 2.751 0 3.509l-8.65 4.731c-.336.184-.612.459-.795.795l-4.731 8.65c-.759 1.387-2.751 1.387-3.509 0l-4.731-8.65c-.184-.336-.459-.611-.795-.795l-8.65-4.731c-1.387-.759-1.387-2.751 0-3.509l8.65-4.731c.336-.184.611-.459.795-.795l4.731-8.65c.758-1.387 2.751-1.387 3.509 0zm-302.571-34.09-15.115 8.267c-1.387.759-1.387 2.751 0 3.509l15.115 8.267c.336.184.611.459.795.795l8.267 15.115c.759 1.387 2.751 1.387 3.509 0l8.267-15.115c.184-.336.459-.612.795-.795l15.115-8.267c1.387-.759 1.387-2.751 0-3.509l-15.115-8.267c-.336-.184-.611-.459-.795-.795l-8.267-15.115c-.759-1.387-2.751-1.387-3.509 0l-8.267 15.115c-.183.336-.459.612-.795.795z" fill="#fff5f5"/>
</g></svg>