<?xml version="1.0" encoding="UTF-8" standalone="no"?>
<svg width="1050px" height="1485px" version="1.1" xmlns="http://www.w3.org/2000/svg" xmlns:xlink="http://www.w3.org/1999/xlink" xmlns:mei="http://www.music-encoding.org/ns/mei" overflow="visible">
   <desc>Engraved by Verovio 3.2.0-[undefined]</desc>
   <defs>
      <symbol id="E052" viewBox="0 0 1000 1000" overflow="inherit">
         <path transform="scale(1,-1)" d="M382 117c-72 -2 -128 -47 -128 -120v-7c2 -46 43 -99 75 -115c-3 -2 -7 -5 -10 -10c-70 33 -116 88 -123 172v11c0 68 44 126 88 159c23 17 49 29 78 36l-29 170c-21 -13 -52 -37 -92 -73c-50 -44 -86 -84 -109 -119c-45 -69 -67 -130 -67 -182v-13 c5 -68 35 -127 93 -176s125 -73 203 -73c25 0 50 3 75 9c-19 111 -36 221 -54 331zM406 119l54 -326c73 25 110 78 110 161c0 7 0 15 -1 23c-7 95 -57 142 -151 142h-12zM461 939c-95 0 -135 -175 -135 -286c0 -24 2 -48 5 -71c50 39 92 82 127 128c40 53 60 100 60 140v8 c-4 53 -22 81 -55 81h-2zM441 -245c-23 -4 -48 -6 -76 -6c-59 0 -102 7 -130 20c-88 42 -150 93 -187 154c-26 44 -43 103 -48 176c0 6 -1 13 -1 19c0 54 15 111 45 170c29 57 65 106 110 148s96 85 153 127c-3 16 -8 46 -13 92c-4 43 -5 73 -5 89c0 117 16 172 69 257 c34 54 64 82 89 82c21 0 43 -30 69 -92s39 -115 41 -159v-15c0 -109 -21 -162 -67 -241c-13 -20 -63 -90 -98 -118c-13 -9 -25 -19 -37 -29l31 -181c8 1 18 2 28 2c58 0 102 -12 133 -35c59 -43 92 -104 98 -184c1 -7 1 -15 1 -22c0 -123 -87 -209 -181 -248 c8 -57 17 -110 25 -162c5 -31 6 -58 6 -80c0 -30 -5 -53 -14 -70c-25 -46 -59 -77 -102 -92c21 -1 85 -13 85 -60c0 -35 -22 -43 -31 -50c-6 -5 -8 -10 -8 -16s0 -11 4 -16c6 -11 9 -22 9 -34c0 -27 -18 -53 -46 -65c-11 -4 -27 -6 -41 -6c-34 0 -82 21 -90 58 c-1 5 -2 8 -2 12c0 28 25 57 51 66c4 1 6 2 6 5c0 2 -1 3 -2 3c-11 13 -16 27 -16 41c0 21 11 40 30 51h-5c-5 0 -11 -1 -16 -1c-37 0 -72 10 -108 27c-50 24 -77 59 -80 105v11c0 29 7 55 20 76c18 28 45 42 79 44h6c49 0 93 -42 97 -87v-9c0 -51 -34 -86 -105 -106 c17 -24 51 -36 102 -36c62 0 116 43 140 85c9 16 13 41 13 74c0 20 -1 42 -5 67c-8 53 -18 106 -26 159zM315 -781c-3 -2 -6 -5 -7 -8c-6 -8 -10 -19 -10 -30c0 -2 0 -4 1 -7c7 -32 34 -52 53 -52c20 0 37 20 37 36c0 5 -2 9 -4 14c-5 13 -14 24 -25 34c-6 5 -11 10 -17 14 c-4 2 -9 6 -14 6c-6 0 -11 -3 -14 -7zM349 -685c0 -14 10 -25 18 -34c8 -8 16 -18 26 -25c5 -2 10 -4 13 -4c17 0 22 30 23 48c0 9 -3 20 -9 26c-8 9 -23 14 -40 14c-15 -1 -29 -8 -31 -25z" />
      </symbol>
      <symbol id="E084" viewBox="0 0 1000 1000" overflow="inherit">
         <path transform="scale(1,-1)" d="M0 -78c84 97 114 180 134 329h170c-13 -32 -82 -132 -99 -151l-84 -97c-33 -36 -59 -63 -80 -81h162v102l127 123v-225h57v-39h-57v-34c0 -43 19 -65 57 -65v-34h-244v36c48 0 60 26 60 70v27h-203v39z" />
      </symbol>
      <symbol id="E0A4" viewBox="0 0 1000 1000" overflow="inherit">
         <path transform="scale(1,-1)" d="M0 -39c0 68 73 172 200 172c66 0 114 -37 114 -95c0 -84 -106 -171 -218 -171c-64 0 -96 30 -96 94z" />
      </symbol>
      <symbol id="E241" viewBox="0 0 1000 1000" overflow="inherit">
         <path transform="scale(1,-1)" d="M179 646c-4 8 -17 30 -18 33l-4 10c0 3 2 5 5 5s7 -2 13 -7c23 -33 46 -81 66 -132c22 -57 35 -125 35 -163c0 -104 -60 -183 -122 -241c-63 -59 -57 -53 -61 -56c-38 -34 -63 -95 -71 -95h-22v190c40 7 69 11 87 16c88 27 168 95 168 200c0 30 -12 89 -30 138 c-17 47 -31 73 -46 102z" />
      </symbol>
      <symbol id="E262" viewBox="0 0 1000 1000" overflow="inherit">
         <path transform="scale(1,-1)" d="M136 186v169h17v-164l44 14v-91l-44 -14v-165l44 12v-91l-44 -13v-155h-17v150l-76 -22v-155h-17v149l-43 -13v90l43 14v167l-43 -14v92l43 13v169h17v-163zM60 73v-167l76 22v168z" />
      </symbol>
   </defs>
   <style type="text/css">g.page-margin{font-family:Times;} g.reh, g.tempo{font-weight:bold;} g.dir, g.dynam, g.mNum{font-style:italic;} g.label{font-weight:normal;}</style>
   <svg class="definition-scale" color="black" viewBox="0 0 21000 29700">
      <g class="page-margin" transform="translate(500, 500)">
         <g id="system-0000000000025342" class="system">
            <g id="label-0000000000016219" class="label">
               <text x="1200" y="2128" text-anchor="end" font-size="0px">
                  <tspan id="text-0000000000025864" class="text">
                     <tspan font-size="405px" class="text">Guitar</tspan>
                  </tspan>
               </text>
            </g>
            <g id="section-0000000000014464" class="section boundaryStart" />
            <g id="measure-0000000000009666" class="measure">
               <g id="staff-0000000000013915" class="staff">
                  <path d="M1380 1588 L6366 1588" stroke="currentColor" stroke-width="13" />
                  <path d="M1380 1768 L6366 1768" stroke="currentColor" stroke-width="13" />
                  <path d="M1380 1948 L6366 1948" stroke="currentColor" stroke-width="13" />
                  <path d="M1380 2128 L6366 2128" stroke="currentColor" stroke-width="13" />
                  <path d="M1380 2308 L6366 2308" stroke="currentColor" stroke-width="13" />
                  <path d="M1380 2488 L6366 2488" stroke="currentColor" stroke-width="13" />
                  <g id="clef-0000000000011977" class="clef">
                     <use xlink:href="#E052" x="1470" y="2308" height="720px" width="720px" />
                  </g>
                  <g id="msig-0000000000016831" class="meterSig">
                     <use xlink:href="#E084" x="2205" y="1858" height="720px" width="720px" />
                     <use xlink:href="#E084" x="2205" y="2218" height="720px" width="720px" />
                  </g>
                  <g class="ledgerLines below">
                     <path d="M2720 2668 L3003 2668" stroke="currentColor" stroke-width="22" />
                     <path d="M3170 2668 L3453 2668" stroke="currentColor" stroke-width="22" />
                     <path d="M2720 2848 L3003 2848" stroke="currentColor" stroke-width="22" />
                  </g>
                  <g id="layer-0000000000015554" class="layer">
                     <g id="note-0000000000001002" class="note">
                        <g class="notehead">
                           <use xlink:href="#E0A4" x="2753" y="2848" height="720px" width="720px" />
                        </g>
                        <g id="stem-0000000000024865" class="stem">
                           <rect x="2753" y="2876" height="512" width="18" />
                           <g id="flag-0000000000016499" class="flag">
                              <use xlink:href="#E241" x="2753" y="3388" height="720px" width="720px" />
                           </g>
                        </g>
                     </g>
                     <g id="note-0000000000015553" class="note">
                        <g class="notehead">
                           <use xlink:href="#E0A4" x="3203" y="2668" height="720px" width="720px" />
                        </g>
                        <g id="stem-0000000000027943" class="stem">
                           <rect x="3203" y="2696" height="512" width="18" />
                           <g id="flag-0000000000001343" class="flag">
                              <use xlink:href="#E241" x="3203" y="3208" height="720px" width="720px" />
                           </g>
                        </g>
                     </g>
                     <g id="note-0000000000004988" class="note">
                        <g class="notehead">
                           <use xlink:href="#E0A4" x="3653" y="2578" height="720px" width="720px" />
                        </g>
                        <g id="stem-0000000000010190" class="stem">
                           <rect x="3653" y="2606" height="512" width="18" />
                           <g id="flag-0000000000028490" class="flag">
                              <use xlink:href="#E241" x="3653" y="3118" height="720px" width="720px" />
                           </g>
                        </g>
                     </g>
                     <g id="note-0000000000026112" class="note">
                        <g class="notehead">
                           <use xlink:href="#E0A4" x="4103" y="2488" height="720px" width="720px" />
                        </g>
                        <g id="stem-0000000000031822" class="stem">
                           <rect x="4103" y="2516" height="512" width="18" />
                           <g id="flag-0000000000006150" class="flag">
                              <use xlink:href="#E241" x="4103" y="3028" height="720px" width="720px" />
                           </g>
                        </g>
                     </g>
                     <g id="note-0000000000025782" class="note">
                        <g class="notehead">
                           <use xlink:href="#E0A4" x="4553" y="2308" height="720px" width="720px" />
                        </g>
                        <g id="stem-0000000000029956" class="stem">
                           <rect x="4553" y="2336" height="512" width="18" />
                           <g id="flag-0000000000009289" class="flag">
                              <use xlink:href="#E241" x="4553" y="2848" height="720px" width="720px" />
                           </g>
                        </g>
                     </g>
                     <g id="note-0000000000025846" class="note">
                        <g class="notehead">
                           <use xlink:href="#E0A4" x="5003" y="2218" height="720px" width="720px" />
                        </g>
                        <g id="stem-0000000000032686" class="stem">
                           <rect x="5003" y="2246" height="542" width="18" />
                           <g id="flag-0000000000015887" class="flag">
                              <use xlink:href="#E241" x="5003" y="2788" height="720px" width="720px" />
                           </g>
                        </g>
                     </g>
                     <g id="note-0000000000006625" class="note">
                        <g class="notehead">
                           <use xlink:href="#E0A4" x="5453" y="2128" height="720px" width="720px" />
                        </g>
                        <g id="stem-0000000000011438" class="stem">
                           <rect x="5453" y="2156" height="572" width="18" />
                           <g id="flag-0000000000020801" class="flag">
                              <use xlink:href="#E241" x="5453" y="2728" height="720px" width="720px" />
                           </g>
                        </g>
                     </g>
                     <g id="note-0000000000030433" class="note">
                        <g class="notehead">
                           <use xlink:href="#E0A4" x="5903" y="1948" height="720px" width="720px" />
                        </g>
                        <g id="stem-0000000000002339" class="stem">
                           <rect x="5903" y="1976" height="602" width="18" />
                           <g id="flag-0000000000019415" class="flag">
                              <use xlink:href="#E241" x="5903" y="2578" height="720px" width="720px" />
                           </g>
                        </g>
                     </g>
                  </g>
               </g>
               <g id="slur-0000000000007949" class="slur">
                  <path d="M2866,2645 C2890,2449 3161,2341 3315,2465 C3183,2395 2912,2503 2866,2645" stroke="currentColor" stroke-linecap="round" stroke-linejoin="round" stroke-width="9" />
               </g>
               <g id="slur-0000000000018484" class="slur">
                  <path d="M3766,2375 C3820,2187 4091,2133 4215,2285 C4102,2191 3831,2245 3766,2375" stroke="currentColor" stroke-linecap="round" stroke-linejoin="round" stroke-width="9" />
               </g>
               <g id="slur-0000000000031864" class="slur">
                  <path d="M4666,2105 C4791,1804 5329,1695 5562,1924 C5340,1753 4802,1862 4666,2105" stroke="currentColor" stroke-linecap="round" stroke-linejoin="round" stroke-width="9" />
               </g>
               <g id="bline-0000000000005499" class="barLineAttr">
                  <path d="M6353 2488 L6353 1588" stroke="currentColor" stroke-width="27" />
               </g>
            </g>
            <g id="measure-0000000000022478" class="measure">
               <g id="staff-0000000000031302" class="staff">
                  <path d="M6366 1588 L9739 1588" stroke="currentColor" stroke-width="13" />
                  <path d="M6366 1768 L9739 1768" stroke="currentColor" stroke-width="13" />
                  <path d="M6366 1948 L9739 1948" stroke="currentColor" stroke-width="13" />
                  <path d="M6366 2128 L9739 2128" stroke="currentColor" stroke-width="13" />
                  <path d="M6366 2308 L9739 2308" stroke="currentColor" stroke-width="13" />
                  <path d="M6366 2488 L9739 2488" stroke="currentColor" stroke-width="13" />
                  <g id="layer-0000000000014591" class="layer">
                     <g id="note-0000000000022805" class="note">
                        <g class="notehead">
                           <use xlink:href="#E0A4" x="6546" y="1858" height="720px" width="720px" />
                        </g>
                        <g id="stem-0000000000029473" class="stem">
                           <rect x="6546" y="1886" height="602" width="18" />
                           <g id="flag-0000000000025539" class="flag">
                              <use xlink:href="#E241" x="6546" y="2488" height="720px" width="720px" />
                           </g>
                        </g>
                     </g>
                     <g id="note-0000000000032737" class="note">
                        <g class="notehead">
                           <use xlink:href="#E0A4" x="6996" y="1678" height="720px" width="720px" />
                        </g>
                        <g id="stem-0000000000000077" class="stem">
                           <rect x="6996" y="1706" height="602" width="18" />
                           <g id="flag-0000000000014734" class="flag">
                              <use xlink:href="#E241" x="6996" y="2308" height="720px" width="720px" />
                           </g>
                        </g>
                     </g>
                     <g id="note-0000000000018250" class="note">
                        <g class="notehead">
                           <use xlink:href="#E0A4" x="7446" y="1858" height="720px" width="720px" />
                        </g>
                        <g id="stem-0000000000004770" class="stem">
                           <rect x="7446" y="1886" height="602" width="18" />
                           <g id="flag-0000000000009360" class="flag">
                              <use xlink:href="#E241" x="7446" y="2488" height="720px" width="720px" />
                           </g>
                        </g>
                     </g>
                     <g id="note-0000000000027942" class="note">
                        <g class="notehead">
                           <use xlink:href="#E0A4" x="7896" y="1678" height="720px" width="720px" />
                        </g>
                        <g id="stem-0000000000021557" class="stem">
                           <rect x="7896" y="1706" height="602" width="18" />
                           <g id="flag-0000000000007718" class="flag">
                              <use xlink:href="#E241" x="7896" y="2308" height="720px" width="720px" />
                           </g>
                        </g>
                     </g>
                     <g id="note-0000000000003705" class="note">
                        <g class="notehead">
                           <use xlink:href="#E0A4" x="8346" y="1678" height="720px" width="720px" />
                        </g>
                        <g id="stem-0000000000023080" class="stem">
                           <rect x="8346" y="1706" height="602" width="18" />
                        </g>
                     </g>
                     <g id="note-0000000000024189" class="note">
                        <g class="notehead">
                           <use xlink:href="#E0A4" x="9036" y="1588" height="720px" width="720px" />
                        </g>
                        <g id="stem-0000000000011089" class="stem">
                           <rect x="9036" y="1616" height="602" width="18" />
                        </g>
                        <g id="accid-0000000000021264" class="accid">
                           <use xlink:href="#E262" x="8841" y="1588" height="720px" width="720px" />
                        </g>
                     </g>
                  </g>
               </g>
               <g id="slur-0000000000023617" class="slur">
                  <path d="M6659,1655 C6876,1236 7685,1130 8005,1479 C7692,1188 6883,1294 6659,1655" stroke="currentColor" stroke-linecap="round" stroke-linejoin="round" stroke-width="9" />
               </g>
               <g id="slur-0000000000007226" class="slur">
                  <path d="M8459,1476 C8569,1249 8982,1195 9147,1388 C8989,1253 8576,1307 8459,1476" stroke="currentColor" stroke-linecap="round" stroke-linejoin="round" stroke-width="9" />
               </g>
               <g id="bline-0000000000013111" class="barLineAttr">
                  <path d="M9726 2488 L9726 1588" stroke="currentColor" stroke-width="27" />
               </g>
            </g>
            <g id="bdend-0000000000018969" class="boundaryEnd section-0000000000014464" />
         </g>
         <g id="pghead-0000000000027883" class="pgHead autogenerated">
            <text x="0" y="0" font-size="0px">
               <tspan id="rend-0000000000009403" class="rend" x="10000" y="417" text-anchor="middle">
                  <title class="labelAttr">title</title>
                  <tspan id="rend-0000000000000658" class="rend">
                     <tspan id="text-0000000000012965" class="text">
                        <tspan font-size="607px" class="text">Title</tspan>
                     </tspan>
                  </tspan>
               </tspan>
            </text>
         </g>
         <g id="pgfoot-0000000000024047" class="pgFoot autogenerated">
            <g id="fig-0000000000011693" class="fig">
               <g id="fig-0000000000004703" class="svg" transform="translate(7750, 28099) scale(10, 10)">
                  <g>
                     <path fill="#00000" d="M 17.11278,49.26451 V 10.367554 h 12.696511 c 3.288815,7.336676 6.71267,14.610456 10.127281,21.888976 3.419998,-7.484684 6.255515,-14.204887 9.58887,-21.909915 2.436207,0.103726 4.316952,0.08453 6.484294,-0.05808 V 49.264423 H 50.274275 C 50.145222,38.35639 50.016136,27.448368 49.887066,16.540329 45.003488,27.315459 39.967448,38.433564 35.083854,49.208695 34.678996,49.343717 34.426583,49.135619 34.021726,49.270644 29.46588,39.330716 24.910049,29.390805 20.354201,19.450876 20.224341,29.388756 20.09461,39.326619 19.964815,49.264497 H 17.11278 Z M 36.754144,39.324695 C 32.721221,30.512695 28.6883,21.700679 24.655394,12.888662 22.530527,12.750737 22.656775,12.71031 20.714356,12.813974 v 0.966497 c 4.612938,9.99784 9.609439,20.748709 13.87298,30.081745 0.722248,-1.512523 1.444528,-3.025014 2.166808,-4.537521 z m 25.738417,9.939815 c 0,-12.965651 0,-25.931305 0,-38.896956 10.084388,0 20.168791,0 30.253178,0 0,0.960416 0,1.920849 0,2.881265 -6.482825,0 -12.965652,0 -19.448478,0 0,4.802097 0,9.604178 0,14.406277 5.52241,0 11.044819,0 16.567229,0 0,0.960415 0,1.920832 0,2.881248 -5.52241,0 -11.044819,0 -16.567229,0 0,5.282306 0,10.564611 0,15.846917 6.963035,0 13.926068,0 20.889103,0 0,0.960416 0,1.920832 0,2.881249 -10.564597,0 -21.129207,0 -31.693803,0 z m 4.321874,-2.160937 c 0,-11.765131 0,-23.530263 0,-35.295394 -0.720312,0 -1.440625,0 -2.160937,0 0,11.765131 0,23.530263 0,35.295394 0.720312,0 1.440625,0 2.160937,0 z m 32.41413,2.160937 c 0,-12.965651 0,-25.931305 0,-38.896956 2.401045,0 4.802095,0 7.203135,0 0,12.965651 0,25.931305 0,38.896956 -2.40104,0 -4.80209,0 -7.203135,0 z m 2.881265,-2.160937 c 0,-11.765131 0,-23.530263 0,-35.295394 -0.72031,0 -1.44064,0 -2.160953,0 0,11.765131 0,23.530263 0,35.295394 0.720313,0 1.440643,0 2.160953,0 z" />
                     <path fill="#00000" d="m 346.3,6.7 c -3.1,0.5 -4.9,4.4 -2.7,6.8 1.2,1.4 2.7,2.4 4.1,3.5 -2.4,5.3 -7.7,8.3 -11.9,12.1 -3.7,2.8 -7,6.2 -9.7,9.9 -2.2,-0.8 -0.3,-6.8 -0.6,-9.5 0.1,-3.1 0.7,-6.4 2.9,-8.7 1.3,-1.9 3,-3.5 4.5,-5.2 1.2,-3.4 -3.2,-4.9 -5.8,-4.6 -7.3,-0.5 -14.6,2 -20,6.8 -5,4.6 -10,10.1 -11.5,17 -0.9,3.5 -0.2,7.5 2.8,9.9 2.5,2.8 7.4,2.9 9.8,-0.2 1.7,-2.3 3.2,-4.8 3.8,-7.6 -0.1,-2.6 -4.4,-2.3 -4.3,0.2 1.2,2.4 -0.9,4.7 -2.7,6.2 -1.7,0.9 -4.7,0.7 -4.8,-1.7 -1,-5.8 2.1,-11.3 5.2,-16.1 4,-5.8 9.8,-11.2 17.2,-11.8 1.6,0 8.1,-1.2 6.8,1.4 -2.8,2.8 -5.6,6.1 -6,10.3 -1.6,7.7 0.1,15.7 -2.3,23.2 -1.1,3.9 2,2.6 2.5,0.2 3.3,-7.4 8.9,-13.4 15.1,-18.5 4.2,-3.9 9.5,-7.1 11.9,-12.6 1.3,-3.6 1.2,-9 -2.7,-10.9 -0.6,-0.2 -1.2,-0.3 -1.8,-0.3 z m 66,14.5 c -2,0.8 -1.8,4.9 0.8,4.4 3.4,0.4 2.9,-6.2 -0.8,-4.4 z m 0.6,7.3 c -1.3,0.5 -7.6,0.5 -5.4,2.2 4,-0.3 0.7,4.5 0.6,6.7 -0.4,2.9 -2.4,5.9 -1.2,8.8 2.7,1.7 5.6,-0.8 6.8,-3.2 1.6,-1.4 -0.5,-3 -1.2,-0.9 -0.4,0.8 -2.4,3.5 -2.6,1.8 1.1,-5 2.7,-9.9 3.9,-14.9 l -0.1,-0.5 h -0.9 z m -65.1,0.2 c -6.5,1.6 -10.5,9.5 -8.2,15.7 2.1,3.4 7.4,2.9 10.1,0.4 2,-0.2 3.6,-5.3 1,-3.4 -1.4,2 -4,4.2 -6.5,2.8 -2.2,-1.9 -1.9,-5.7 1.7,-5.3 3.1,-0.9 6.9,-2.1 8.1,-5.5 0.9,-2.7 -1.6,-5.2 -4.3,-4.8 h -1.1 -0.7 z m 13.6,0 c -2.2,0 -8.5,1.8 -2.9,2.3 0.9,1.9 -1,4.9 -1.1,7.2 -0.5,2.9 -1.4,5.7 -1.7,8.7 3.7,0.7 3.8,-2.6 4.4,-5.3 0.9,-3.3 1.6,-7 4.1,-9.5 2.4,1.6 6.8,-0.7 3.7,-3.4 -2.9,-0.5 -4.8,2.4 -6.2,4.3 0,-1.2 2.4,-5 -0.2,-4.3 z m 15.8,0 c -6.4,1.3 -9.6,9.1 -7.7,14.9 1.9,4 7.7,3.9 11,1.7 4.1,-3 6,-8.9 4.4,-13.7 -1.3,-3 -4.8,-3.2 -7.6,-3 z m 17,0 c -2.3,0 -8.8,1.9 -3,2.4 0.4,2.5 -1,5.7 -1.4,8.4 -0.7,2.4 -1.8,7.5 2.1,7.2 3.8,-0.1 6.5,-3.5 8.5,-6.3 2,-3.2 4.5,-7 3.3,-10.9 -3.7,-3 -3.6,2.6 -3.1,5.1 -0.7,3.8 -2.7,7.9 -6.2,9.8 -3.6,0.6 -1,-4.3 -0.8,-6.1 0.6,-3.2 1.6,-6.3 1.9,-9.5 -0.4,0 -0.8,0 -1.1,0 z m 30.6,0 c -6.3,1.2 -9.5,8.9 -7.8,14.7 1.5,4 7.2,4.2 10.5,2.4 4.6,-2.8 6.6,-9.3 4.8,-14.3 -1.4,-2.8 -4.8,-3 -7.5,-2.8 z m -75.4,1.7 c 2.1,1.5 0.2,4.7 -1.6,5.7 -1.1,0.4 -5.5,3.4 -4.6,0.7 0.8,-2.7 2.2,-6.2 5.3,-6.6 l 0.9,0.1 z m 30.8,0 c 2.6,1.5 1.3,5.2 0.8,7.6 -0.8,2.7 -1.9,5.9 -4.7,7.1 -5.1,0.8 -4,-5.8 -2.8,-8.8 1,-2.8 3,-6.8 6.7,-5.8 z m 47.1,-0.1 c 2.9,0.7 2,4.7 1.5,6.8 -0.7,3 -1.8,6.7 -5,8 -4.7,0.8 -4,-5.1 -3,-7.9 0.9,-3 2.7,-7.3 6.5,-6.8 z m -88.1,5.9 c -0.3,1.3 0.9,-0.6 0,0 z m -1.1,2.4 c -0.2,0.5 0.5,-0.1 0,0 z m -1.3,4.5 c -0.3,1.3 0.8,-0.2 0,0 z" />
                     <text y="41" x="201" fill="#00000" style="font-style:italic;font-weight:normal;font-size:30px;line-height:125%;font-family:Times;text-anchor:middle" xml:space="preserve">engraved with</text>
                  </g>
               </g>
            </g>
         </g>
      </g>
   </svg>
</svg>
